<?xml version="1.0" encoding="UTF-8" standalone="no"?>
<svg
   xmlns:dc="http://purl.org/dc/elements/1.1/"
   xmlns:cc="http://creativecommons.org/ns#"
   xmlns:rdf="http://www.w3.org/1999/02/22-rdf-syntax-ns#"
   xmlns:svg="http://www.w3.org/2000/svg"
   xmlns="http://www.w3.org/2000/svg"
   xmlns:sodipodi="http://sodipodi.sourceforge.net/DTD/sodipodi-0.dtd"
   xmlns:inkscape="http://www.inkscape.org/namespaces/inkscape"
   version="1.0"
   viewBox="0 0 2078.3384 2253.6201"
   id="svg22403"
   inkscape:version="0.91 r13725"
   sodipodi:docname="Umbrella-Revolution-Yellow.svg"
   width="2078.3384"
   height="2253.6201">
  <defs
     id="defs22417" />
  <sodipodi:namedview
     pagecolor="#ffffff"
     bordercolor="#666666"
     borderopacity="1"
     objecttolerance="10"
     gridtolerance="10"
     guidetolerance="10"
     inkscape:pageopacity="0"
     inkscape:pageshadow="2"
     inkscape:window-width="1916"
     inkscape:window-height="1035"
     id="namedview22415"
     showgrid="false"
     inkscape:zoom="0.0925"
     inkscape:cx="1298.2311"
     inkscape:cy="1146.4929"
     inkscape:window-x="4"
     inkscape:window-y="1"
     inkscape:window-maximized="1"
     inkscape:current-layer="svg22403"
     fit-margin-top="0"
     fit-margin-left="0"
     fit-margin-right="0"
     fit-margin-bottom="0" />
  <g
     transform="matrix(0.1,0,0,-0.1,91.814172,2120.0725)"
     id="g22405"
     style="fill:#000000">
    <rect
       style="opacity:1;fill:#fdd017;fill-opacity:1;stroke:none;stroke-width:23;stroke-linecap:round;stroke-linejoin:round;stroke-miterlimit:4;stroke-dasharray:none;stroke-opacity:1"
       id="rect22981"
       width="20783.385"
       height="22536.201"
       x="-918.14172"
       y="-21200.725"
       transform="scale(1,-1)" />
    <path
       d="m 8999.2949,18408.445 c 396.5813,-14.466 333.9164,-288.685 386.4419,-350.848 60.6156,-277.131 64.5666,-388.289 49.5742,-674.921 2279.158,-395.412 2803.711,-737.119 4554.004,-1689.668 534.875,-421.471 1059.64,-863.338 1508.008,-1373.008 568.187,-800.466 1086.209,-1649.741 1405.996,-2586.992 186.468,-522.854 221.264,-434.115 350.332,-973.77 291.278,-585.433 369.2,-1833.248 250.664,-2129.238 -436.016,62.1808 0,0 -1093.635,956.0775 -730.733,676.8205 -1279.312,501.7445 -1561.365,488.9225 -474.767,-75.9133 -1601.048,-568.4351 -1857.266,-649.082 -140.102,-521.939 -264.137,-1718.348 -223.886,-1278.34 -273.296,-511.2406 -801.7,761.9501 -989.417,1512.2513 -240.78,646.9237 -1119.15,687.6837 -1623.65,612.8657 C 9927.8992,8614.106 9766.5902,6531.476 9799.3149,4670 c 11.6404,-828.721 -68.2656,-1694.758 -404.7461,-2446.621 -332.799,-476.21 -827.2239,-848.417 -1389.5119,-1012.637 -654.478,-166.763 -1371.558,191.261 -1629.375,816.25 -374.904,515.707 -577.961,1272.782 -261.367,1860 634.379,441.271 1007.577,71.208 996.992,-163.984 -68.693,-540.6 384.353,-1236.138 988.008,-1135 336.657,238.703 538.355,1056.458 503.32,996.68 177.445,490.69 205.5538,1035.78 195.6839,1526.308 71.8296,440.997 84.6108,1549.262 87.8125,1850.957 -41.1327,823.537 -26.8047,1646.723 -150.8203,2459.0431 24.3621,729.9829 -515.9478,734.5419 -1148.8932,626.2329 -749.3372,114.204 -884.8136,-452.5452 -1170.1726,-915.2368 C 6279.8062,8832.476 6128.6009,8467.921 5933.3189,8214.004 5621.0829,8490.11 5640.1941,9234.1691 5516.1831,9705.1968 4538.053,9763.6752 3965.1139,9695.5516 3098.3189,9470 c -727.708,-190.6422 -1283.734,-605.7 -1360.996,-1323.008 -418.206,-51.833 -404.8,594.167 -595.508,1500.7619 77.965,789.7961 81.0423,1729.4911 298.8243,2497.1351 268.102,461.277 391.549,842.511 784.004,1375 594.756,753.506 1169.0732,1498.576 1927.6642,2093.787 661.317,437.423 1470.9168,779.426 2177.3358,1148.225 724.616,275.935 1242.1387,461.697 1995.2767,500.677 18.353,259.59 57.841,518.591 173.321,754.492 132.669,340.584 289.2647,399.101 501.054,391.375 z m -396.66,-14823.757 c -7.223,-19.975 -14.598,-39.901 -22.324,-59.688 10.935,34.031 18.182,52.62 22.324,59.688 z M 9645.311,16294.004 c 277.2195,-509.804 1516.399,-1878.125 1149.004,-1403.008 758.653,-944.173 1404.424,-1985.1 1831.992,-3122.988 297.697,-298.627 210.251,-1060.57 758.008,-991.016 825.736,366.385 1766.274,501.563 2635,195 333.53,4.204 329.44,562.655 -107.664,1180.015 -582.67,913.658 -1735.441,2372.208 -3097.336,3091.997 -968.989,550.937 -2052.252,970.071 -3169.004,1050 z m -1727.9881,-68.008 c -1120.284,-4.821 -3011.761,-1129.715 -3828.008,-2010.996 -533.003,-565.376 -1033.42,-1192.705 -1341.992,-1914.004 -270.488,-603.373 -609.647,-1209.914 -643.008,-1876.992 853.987,324.411 1770.473,452.948 2680,481.992 1227.792,74.931 695.001,-570.595 968.008,579.004 284.259,942.75 619.433,1878.627 1096.992,2739.004 308.759,691.421 713.109,1343.58 1068.008,2001.992 z m 811.992,-540 c -390.913,-698.421 -640.027,-1476.344 -1000,-2179.004 -255.696,-781.621 -739.265,-1531.581 -902.617,-2362.617 812.078,421.122 2362.8636,593.293 1813.613,501.621 1043.8678,1.875 2131.0461,-54.626 3067.0121,-561.992 395.262,-176.095 -603.608,1431.709 -278.008,915.996 -440.495,858.519 -881.881,1730.334 -1485.9962,2500.996 -480.9975,434.001 -726.1577,918.867 -1214.0039,1185 z"
       id="path22407"
       inkscape:connector-curvature="0"
       sodipodi:nodetypes="scccccccccccccccccccccccccccccccccccccsccccccccccccccccccccccccccc" />
    <path
       d="m 14610,6140 c -5.441,-30.9315 49.854,20.5093 0,0 z"
       id="path22409"
       inkscape:connector-curvature="0" />
  </g>
  <metadata
     id="metadata22413">
    <rdf:RDF>
      <cc:Work>
        <dc:format>image/svg+xml</dc:format>
        <dc:type
           rdf:resource="http://purl.org/dc/dcmitype/StillImage" />
        <cc:license
           rdf:resource="http://creativecommons.org/publicdomain/zero/1.0/" />
        <dc:publisher>
          <cc:Agent
             rdf:about="http://openclipart.org/">
            <dc:title>Openclipart</dc:title>
          </cc:Agent>
        </dc:publisher>
        <dc:title></dc:title>
      </cc:Work>
      <cc:License
         rdf:about="http://creativecommons.org/publicdomain/zero/1.0/">
        <cc:permits
           rdf:resource="http://creativecommons.org/ns#Reproduction" />
        <cc:permits
           rdf:resource="http://creativecommons.org/ns#Distribution" />
        <cc:permits
           rdf:resource="http://creativecommons.org/ns#DerivativeWorks" />
      </cc:License>
    </rdf:RDF>
  </metadata>
</svg>
